<?xml version="1.0" encoding="iso-8859-1"?>
<!-- Uploaded to: SVG Repo, www.svgrepo.com, Generator: SVG Repo Mixer Tools -->
<svg height="800px" width="800px" version="1.1" id="Layer_1" xmlns="http://www.w3.org/2000/svg" xmlns:xlink="http://www.w3.org/1999/xlink" 
	 viewBox="0 0 508 508" xml:space="preserve">
<circle style="fill:#FFFFFF;" cx="254" cy="254" r="254"/>
<path style="fill:#324A5E;" d="M271.2,0.4V174h-34V0.4C242.8,0,248.4,0,254.4,0C259.6,0,265.6,0,271.2,0.4z"/>
<path style="fill:#FFD05B;" d="M125.2,174v178.4c0,71.2,128.8,99.2,128.8,99.2s128.8-28,128.8-99.2V174H125.2z"/>
<path style="fill:#E6E9EE;" d="M236.8,145.6c0,4,0,8,0,12C236.8,272.8,254,366,254,366s17.2-93.2,17.2-208.4c0-4,0-8,0-12H236.8z"/>
</svg>